<svg width="50" height="34" viewBox="0 0 50 34" fill="none" xmlns="http://www.w3.org/2000/svg">
<path d="M49.6979 15.9548C44.9905 6.76995 35.671 0.555542 25 0.555542C14.329 0.555542 5.00696 6.77429 0.302097 15.9557C0.103522 16.3485 6.10352e-05 16.7825 6.10352e-05 17.2226C6.10352e-05 17.6628 0.103522 18.0968 0.302097 18.4896C5.00956 27.6745 14.329 33.8889 25 33.8889C35.671 33.8889 44.9931 27.6701 49.6979 18.4887C49.8965 18.0959 50 17.6619 50 17.2218C50 16.7816 49.8965 16.3476 49.6979 15.9548V15.9548ZM25 29.7222C22.5278 29.7222 20.111 28.9891 18.0554 27.6156C15.9998 26.2421 14.3976 24.2898 13.4515 22.0057C12.5054 19.7217 12.2579 17.2083 12.7402 14.7836C13.2225 12.3588 14.413 10.1315 16.1612 8.38337C17.9093 6.63522 20.1366 5.44471 22.5614 4.96239C24.9862 4.48008 27.4995 4.72762 29.7836 5.67371C32.0676 6.61981 34.0199 8.22196 35.3934 10.2776C36.7669 12.3332 37.5 14.7499 37.5 17.2222C37.5008 18.864 37.178 20.4898 36.5501 22.0067C35.9222 23.5236 35.0015 24.9019 33.8406 26.0628C32.6797 27.2237 31.3014 28.1444 29.7845 28.7723C28.2676 29.4002 26.6418 29.723 25 29.7222V29.7222ZM25 8.88887C24.2562 8.89927 23.5172 9.00993 22.803 9.21787C23.3917 10.0179 23.6742 11.0025 23.5993 11.993C23.5244 12.9835 23.0969 13.9143 22.3945 14.6167C21.6922 15.3191 20.7613 15.7465 19.7708 15.8215C18.7803 15.8964 17.7957 15.6139 16.9957 15.0252C16.5401 16.7036 16.6223 18.4827 17.2308 20.112C17.8393 21.7412 18.9434 23.1387 20.3877 24.1076C21.832 25.0765 23.5438 25.5681 25.2821 25.5132C27.0204 25.4583 28.6978 24.8596 30.078 23.8015C31.4583 22.7433 32.472 21.279 32.9764 19.6146C33.4809 17.9501 33.4507 16.1694 32.89 14.5231C32.3294 12.8767 31.2666 11.4476 29.8513 10.4369C28.4359 9.42619 26.7392 8.88478 25 8.88887V8.88887Z" fill="#18709B"/>
</svg>
